inDegrees=yes
name=ik_S49_A12_T02
DataType=double
version=3
OpenSimVersion=4.3-2021-08-27-4bc7ad9
endheader
time	pelvis_tilt	pelvis_list	pelvis_rotation	pelvis_tx	pelvis_ty	pelvis_tz	hip_flexion_r	hip_adduction_r	hip_rotation_r	knee_angle_r	knee_angle_r_beta	ankle_angle_r	subtalar_angle_r	mtp_angle_r	hip_flexion_l	hip_adduction_l	hip_rotation_l	knee_angle_l	knee_angle_l_beta	ankle_angle_l	subtalar_angle_l	mtp_angle_l	lumbar_extension	lumbar_bending	lumbar_rotation	arm_flex_r	arm_add_r	arm_rot_r	elbow_flex_r	pro_sup_r	wrist_flex_r	wrist_dev_r	arm_flex_l	arm_add_l	arm_rot_l	elbow_flex_l	pro_sup_l	wrist_flex_l	wrist_dev_l
8.459999999999908	-1.995875456966489	1.652851902674602	31.85823772108473	0	0.9399999999999999	0	28.76625765968449	-9.131455890292839	-8.331265568408996	31.90369953178875	0.556824600396687	0	0	0	28.76625765968449	-9.131455890292839	-8.331265568408996	31.90369953178875	0.556824600396687	0	0	0	-0.8212939289230646	2.006201906284971	11.18548512722226	0.4217226660654319	-5.22199664243102	0.910693720347261	5.555317405829105	94.20720154078025	0	-2.797943705169035e-53	103.8754470890001	-13.16666777934453	22.41936157836755	21.48986176921448	79.15082915585265	0	-2.797943705169035e-53
8.479999999999908	-2.048300506341583	1.66220397532524	31.7526717600491	0	0.9399999999999999	0	28.77152088720086	-9.132392251617556	-8.332421222151146	31.9091740537096	0.5569201488291784	0	0	0	28.77152088720086	-9.132392251617556	-8.332421222151146	31.9091740537096	0.5569201488291784	0	0	0	-0.8615195957937678	2.041927543583822	11.20180270153789	0.4957481476460752	-5.296140229451794	1.005284634178556	5.578963181238312	94.11347498116018	0	0	104.0761409153488	-12.84969560654549	22.72050159561386	20.74251527519869	78.73942606882797	0	0
8.499999999999908	-2.105858548181462	1.665418374395726	31.68128645455504	0	0.9399999999999999	0	28.77703807164926	-9.133376281542485	-8.333634715427811	31.91489722450994	0.5570200370032984	0	0	0	28.77703807164926	-9.133376281542485	-8.333634715427811	31.91489722450994	0.5570200370032984	0	0	0	-0.9092113225306991	2.075063011967548	11.2145731871259	0.5733659119146349	-5.360778041303424	0.9258659828946824	5.607444274330028	94.15787722612127	0	0	104.3498543274567	-12.6013888541678	22.91534057520038	20.38621436837459	78.58758759744997	0	0
8.519999999999907	-2.121223896732277	1.679296681817451	31.61993489360301	0	0.9399999999999999	0	28.78191471352861	-9.134244405842169	-8.334706156194549	31.91996132988077	0.5571084223156872	0	0	0	28.78191471352861	-9.134244405842169	-8.334706156194549	31.91996132988077	0.5571084223156872	0	0	0	-0.9158538846612537	2.095034124169822	11.24726165974237	0.577876981718115	-5.395627060367993	0.7878494705334703	5.59574583129041	94.21258884783023	0	0	104.5028985040859	-12.27258891404338	23.11193640080585	19.7255369976061	78.5094760361096	0	0
8.539999999999907	-2.209676080722804	1.708966312487191	31.48053653758856	0	0.9399999999999999	0	28.78686691702465	-9.135126551382424	-8.335794759384559	31.92509843992849	0.5571980818000573	0	0	0	28.78686691702465	-9.135126551382424	-8.335794759384559	31.92509843992849	0.5571980818000573	0	0	0	-0.9745031088453315	2.16674489191145	11.19660598543795	0.6614978303015554	-5.562104078646493	0.8672296966256395	5.631624890336913	94.20587840378674	0	0	104.6609923988089	-12.20281430432201	23.21130756931083	19.47113530304931	78.39138217289104	0	0
8.559999999999906	-2.247308434275563	1.736350101088887	31.37760178475968	0	0.9399999999999999	0	28.7921521025856	-9.136065781823952	-8.336954965468268	31.93058880555733	0.5572939067574189	0	0	0	28.7921521025856	-9.136065781823952	-8.336954965468268	31.93058880555733	0.5572939067574189	0	0	0	-0.9923747670369801	2.209690365047323	11.20038916341176	0.6600178062720521	-5.625157013217478	0.9242345780407504	5.636713863487776	94.12708260524875	0	0	104.6509957355791	-11.98712598936064	23.18017347458905	18.7871787427473	77.97179133060887	0	0
8.579999999999906	-2.285522027013728	1.73556744481585	31.26296557338485	0	0.9399999999999999	0	28.79899652726001	-9.137283738205086	-8.338458943874191	31.93768601957094	0.5574177765096749	0	0	0	28.79899652726001	-9.137283738205086	-8.338458943874191	31.93768601957094	0.5574177765096749	0	0	0	-1.02598955748831	2.229087279862361	11.2175329116947	0.7404311827264931	-5.624555082592745	0.9377910979272228	5.655719533667542	94.0608345061178	0	0	104.8278106240982	-11.60360240232201	23.27103981394186	18.22869545067357	77.31220355078604	0	0
8.599999999999905	-2.314934300155658	1.739471327649531	31.19259111647761	0	0.9399999999999999	0	28.80040745226232	-9.137531838671295	-8.338766668250194	31.93916361083621	0.5574435653422527	0	0	0	28.80040745226232	-9.137531838671295	-8.338766668250194	31.93916361083621	0.5574435653422527	0	0	0	-1.048522561338506	2.247760945288745	11.19353206398081	0.8017629305049385	-5.619872761209649	0.8662754168080476	5.671966863246599	94.05642900536265	0	0	104.8045313094269	-11.66749211668118	23.28451844304311	18.19163150264497	77.37909091832267	0	0
8.619999999999905	-2.341542324883792	1.737575024970648	31.12239139071607	0	0.9399999999999999	0	28.80487836919826	-9.138324965858136	-8.339747316521269	31.94380868195712	0.5575246371273018	0	0	0	28.80487836919826	-9.138324965858136	-8.339747316521269	31.94380868195712	0.5575246371273018	0	0	0	-1.072651572754019	2.259973889895414	11.20558085938266	0.8741560604407947	-5.584957205802763	0.6075671874369649	5.657744224376295	94.31014595458223	0	0	104.9124442545822	-11.56820805067222	23.54505191202288	18.11013608684926	77.57646885819331	0	0
8.639999999999905	-2.368094961540972	1.747619339017148	31.03702503005498	0	0.9399999999999999	0	28.80896347228019	-9.139047930266186	-8.340642076783512	31.94805968449089	0.5575988311180268	0	0	0	28.80896347228019	-9.139047930266186	-8.340642076783512	31.94805968449089	0.5575988311180268	0	0	0	-1.089774163921151	2.282404599583573	11.1871778454572	0.9016129389382864	-5.617612130431235	0.5730924948750957	5.663565787071859	94.36014768921949	0	0	104.942711515782	-11.54975098460984	23.72020559904615	18.10467351027683	77.92219879254563	0	0
8.659999999999904	-2.392042837274801	1.747535865639028	30.9360768192266	0	0.9399999999999999	0	28.81367466841073	-9.139881349676855	-8.3416738069615	31.95296148727165	0.5576843837158345	0	0	0	28.81367466841073	-9.139881349676855	-8.3416738069615	31.95296148727165	0.5576843837158345	0	0	0	-1.110133201626774	2.294795177338391	11.1753567318581	0.9418274960173628	-5.634026927836938	0.4994466432338822	5.699023504619009	94.42217131857248	0	0	105.0177623153212	-11.52162301716814	23.87736332625283	18.03577408311978	78.47701746199427	0	0
